<svg width="429" height="471" viewBox="0 0 429 471" fill="none" xmlns="http://www.w3.org/2000/svg">
<path d="M214.5 392C311.426 392 390 313.426 390 216.5C390 119.574 311.426 41 214.5 41C117.574 41 39 119.574 39 216.5C39 313.426 117.574 392 214.5 392Z" fill="#F1F3FF"/>
<path d="M50.0001 109C56.0752 109 61.0001 104.075 61.0001 98C61.0001 91.9249 56.0752 87 50.0001 87C43.925 87 39.0001 91.9249 39.0001 98C39.0001 104.075 43.925 109 50.0001 109Z" fill="#F1F3FF"/>
<path d="M275.5 41C286.822 41 296 31.8218 296 20.5C296 9.17816 286.822 0 275.5 0C264.178 0 255 9.17816 255 20.5C255 31.8218 264.178 41 275.5 41Z" fill="#F1F3FF"/>
<path d="M66.5 376C77.2696 376 86 367.27 86 356.5C86 345.73 77.2696 337 66.5 337C55.7304 337 47 345.73 47 356.5C47 367.27 55.7304 376 66.5 376Z" fill="#F1F3FF"/>
<path d="M402.5 330C413.27 330 422 321.27 422 310.5C422 299.73 413.27 291 402.5 291C391.73 291 383 299.73 383 310.5C383 321.27 391.73 330 402.5 330Z" fill="#F1F3FF"/>
<path d="M364.5 342C369.747 342 374 337.747 374 332.5C374 327.253 369.747 323 364.5 323C359.253 323 355 327.253 355 332.5C355 337.747 359.253 342 364.5 342Z" fill="#F1F3FF"/>
<path d="M224.525 49.5368C223.946 49.4135 223.946 48.5861 224.525 48.4628L233.291 46.5987C233.502 46.5538 233.668 46.3892 233.713 46.1781L235.601 37.4742C235.726 36.8973 236.549 36.8973 236.674 37.4742L238.561 46.1781C238.607 46.3892 238.772 46.5538 238.984 46.5987L247.749 48.4628C248.329 48.5861 248.329 49.4135 247.749 49.5368L238.984 51.4009C238.772 51.4458 238.607 51.6104 238.561 51.8215L236.674 60.5254C236.549 61.1023 235.726 61.1023 235.601 60.5254L233.713 51.8215C233.668 51.6104 233.502 51.4458 233.291 51.4009L224.525 49.5368Z" fill="#C4CBF5"/>
<path d="M24.2229 228.622C24.4467 227.565 25.9558 227.565 26.1796 228.622L29.5224 244.415C29.6038 244.799 29.9034 245.101 30.2878 245.185L45.9173 248.589C46.9669 248.818 46.9668 250.315 45.9173 250.544L30.2878 253.948C29.9034 254.032 29.6038 254.334 29.5224 254.718L26.1796 270.511C25.9558 271.568 24.4467 271.568 24.2229 270.511L20.8801 254.718C20.7986 254.334 20.499 254.032 20.1146 253.948L4.48514 250.544C3.43561 250.315 3.43562 248.818 4.48514 248.589L20.1146 245.185C20.499 245.101 20.7986 244.799 20.8801 244.415L24.2229 228.622Z" fill="#C4CBF5"/>
<path d="M371.345 102.622C371.569 101.565 373.078 101.565 373.301 102.622L375.252 111.835C375.333 112.22 375.633 112.521 376.017 112.605L385.161 114.597C386.211 114.826 386.211 116.323 385.161 116.551L376.017 118.543C375.633 118.627 375.333 118.928 375.252 119.313L373.301 128.526C373.078 129.583 371.569 129.583 371.345 128.526L369.395 119.313C369.313 118.928 369.014 118.627 368.629 118.543L359.485 116.551C358.436 116.323 358.436 114.826 359.485 114.597L368.629 112.605C369.014 112.521 369.313 112.22 369.395 111.835L371.345 102.622Z" fill="#C4CBF5"/>
<path d="M411.659 250.331L414.721 264.798L428.982 267.905L414.721 271.011L411.659 285.479L408.596 271.011L394.336 267.905L408.596 264.798L411.659 250.331Z" fill="white"/>
<path d="M314 137L77.5001 227.5L128 368L158.5 381.5L196.5 389.5L235 388L257.5 384L277.5 378L310.5 361L338.5 339L340.662 336.206C352.865 320.431 363.684 303.634 373 286L314 137Z" fill="url(#paint0_linear_302_974)"/>
<path d="M95.5 187.5L70.5 173.5L287.5 91.5L276 120L284.5 146.5L105 215L95.5 187.5Z" fill="#DDE2FF"/>
<path d="M127 367.5C148.882 378.688 172.572 385.913 196.972 388.841L197.582 388.915H214.979C228.011 388.915 241.005 387.528 253.743 384.777L258.056 383.846C271.675 380.906 284.824 376.104 297.134 369.576C306.738 364.483 315.767 358.373 324.066 351.351L326.76 349.072C333.962 342.977 340.645 336.295 346.739 329.092C355.272 319.008 362.601 307.964 368.579 296.184L374 285.5" stroke="#C4CBF5" stroke-width="4"/>
<path d="M75.5819 225.415L128 368.467" stroke="#C4CBF5" stroke-width="4"/>
<path d="M316.082 136.915L373.588 287.172" stroke="#C4CBF5" stroke-width="4"/>
<path d="M66.5819 173.915L290.575 89.7466" stroke="#C4CBF5" stroke-width="4"/>
<path d="M74.4235 227.991L312.931 136.011L277.771 119.682C276.761 119.213 276.328 118.01 276.808 117.006L289.053 91.3838" stroke="#C4CBF5" stroke-width="4"/>
<path d="M68.5916 173.224L93.8039 186.741C94.7623 187.255 95.1345 188.44 94.6418 189.41L75.5819 226.914" stroke="#C4CBF5" stroke-width="4"/>
<path d="M67.5819 171.415L83.8274 212.023" stroke="#C4CBF5" stroke-width="4"/>
<path d="M95 189L105 217" stroke="#C4CBF5" stroke-width="4"/>
<path d="M277 119L287 148" stroke="#C4CBF5" stroke-width="4"/>
<path d="M289.228 91.8525L303.582 131.415" stroke="#C4CBF5" stroke-width="4"/>
<path d="M169.5 225C175.299 225 180 220.299 180 214.5C180 208.701 175.299 204 169.5 204C163.701 204 159 208.701 159 214.5C159 220.299 163.701 225 169.5 225Z" fill="#DDE2FF"/>
<path d="M154.5 168C158.642 168 162 164.642 162 160.5C162 156.358 158.642 153 154.5 153C150.358 153 147 156.358 147 160.5C147 164.642 150.358 168 154.5 168Z" fill="#F1F3FF"/>
<path d="M235.5 200C241.299 200 246 195.299 246 189.5C246 183.701 241.299 179 235.5 179C229.701 179 225 183.701 225 189.5C225 195.299 229.701 200 235.5 200Z" fill="#DDE2FF"/>
<path d="M200.5 151C204.642 151 208 147.642 208 143.5C208 139.358 204.642 136 200.5 136C196.358 136 193 139.358 193 143.5C193 147.642 196.358 151 200.5 151Z" fill="#F1F3FF"/>
<defs>
<linearGradient id="paint0_linear_302_974" x1="183" y1="137" x2="265" y2="383.5" gradientUnits="userSpaceOnUse">
<stop stop-color="#F1F3FF"/>
<stop offset="1" stop-color="#DDE2FF"/>
</linearGradient>
</defs>
</svg>
